<svg width="183" height="172" viewBox="0 0 183 172" fill="none" xmlns="http://www.w3.org/2000/svg">
<g clip-path="url(#clip0_7_708)">
<path fill-rule="evenodd" clip-rule="evenodd" d="M5.99187 107.672C-13.4173 71.521 20.1704 50.1495 24.4298 47.4384C25.1292 46.9934 27.3116 -5.64046 78.0261 1.11146C84.3852 1.9576 86.2451 1.50597 86.2678 8.02011C86.3104 20.7761 86.7914 164.713 86.1772 167.482C86.0373 168.119 35.4174 189.108 25.3397 127.452C24.4071 121.744 20.4062 124.39 13.1571 116.486C11.3531 114.52 11.4917 114.534 7.24824 109.072C6.82989 108.605 6.41021 108.138 5.99187 107.672Z" fill="#FF6161"/>
<path fill-rule="evenodd" clip-rule="evenodd" d="M176.972 64.1421C196.498 100.51 162.709 122.01 158.424 124.737C157.72 125.185 155.525 178.135 104.505 171.342C98.108 170.491 96.2369 170.946 96.2142 164.392C96.1713 151.56 95.6874 6.75816 96.3053 3.97195C96.446 3.33185 147.37 -17.7832 157.508 44.2431C158.446 49.9852 162.471 47.3233 169.764 55.2743C171.579 57.2521 171.44 57.2387 175.708 62.7336C176.129 63.2027 176.552 63.673 176.972 64.1421Z" fill="#FF6161"/>
<path fill-rule="evenodd" clip-rule="evenodd" d="M178.135 54.177C179.055 55.1015 179.976 56.0247 180.897 56.9492C180.691 56.7128 179.608 55.4761 178.135 54.177Z" fill="#CC5656" fill-opacity="0.2"/>
</g>
<defs>
<clipPath id="clip0_7_708">
<rect width="183" height="172" fill="white"/>
</clipPath>
</defs>
</svg>
